<?xml version="1.0" encoding="utf-8"?>
<svg version="1.1" xmlns="http://www.w3.org/2000/svg" x="0px" y="0px" viewBox="0 0 1000 1000" enable-background="new 0 0 1000 1000" xml:space="preserve">
<metadata> Svg Vector Icons : http://www.onlinewebfonts.com/icon </metadata>
<g><path d="M288.7,392.3c-24.1,0-43.6,19.6-43.6,43.6c0,24.1,19.6,43.6,43.6,43.6c24,0,43.6-19.6,43.6-43.6C332.3,411.9,312.9,392.3,288.7,392.3z M397.9,468.7c-24.1,0-43.6,19.6-43.6,43.6c0,24,19.6,43.6,43.6,43.6c24.1,0,43.6-19.6,43.6-43.6C441.5,488.2,421.9,468.7,397.9,468.7z M539.6,316c-24,0-43.6,19.6-43.6,43.6s19.6,43.6,43.6,43.6c24.1,0,43.6-19.6,43.6-43.6S563.6,316,539.6,316z M648.6,414.1c-24,0-43.6,19.6-43.6,43.6c0,24,19.6,43.6,43.6,43.6c24.1,0,43.6-19.6,43.6-43.6C692.2,433.7,672.7,414.1,648.6,414.1z M855.7,207c-24.1,0-43.6,19.6-43.6,43.6c0,24,19.6,43.6,43.6,43.6c24,0,43.6-19.6,43.6-43.6C899.4,226.5,879.8,207,855.7,207z M157.9,512.3c-24,0-43.6,19.6-43.6,43.6c0,24,19.6,43.6,43.6,43.6c24.1,0,43.6-19.6,43.6-43.6C201.5,531.8,182.1,512.3,157.9,512.3z"/><path d="M972.3,859.1c-9.7,0-17.6,7.9-17.6,17.6V922h-56.3V514.1c0-17.5-14.1-31.6-31.5-31.6h-45.1c-17.5,0-31.2,14.2-31.2,31.6V922H679.3V587.3c0-17.5-14.7-31.1-32.1-31.1H602c-17.5,0-31.8,13.6-31.8,31.1V922H458.9V660.6c0-17.5-14.1-31.6-31.5-31.6h-45.1c-17.5,0-31.2,14.2-31.2,31.6V922H239.7V733.8c0-17.5-14.7-31.1-32.1-31.1h-45.1c-17.5,0-31.8,13.6-31.8,31.1V922H45.2V78h48.4c9.7,0,17.6-7.9,17.6-17.6s-7.9-17.6-17.6-17.6H40.7C24.1,42.9,10,56.1,10,72.5v854.9c0,16.3,14.1,29.7,30.7,29.7H131h108.4h111.4h108.4h111.4h108.4h111.4h108.4h61.4c16.6,0,29.9-13.2,29.9-29.7v-50.8C989.9,867,982,859.1,972.3,859.1z M165.9,922v-184h38.7v184H165.9z M386.2,922V664.1h37.5V922H386.2z M605.4,922V591.4h38.7V922H605.4z M825.8,922V517.6h37.5V922H825.8z"/><path d="M812.5,269l24.9,24.9L691.9,439.3L667,414.4L812.5,269z"/><path d="M586.5,376.9l41.9,38.5l-23.8,25.9l-41.9-38.5L586.5,376.9z"/><path d="M494.8,380.3l25.8,23.9l-81.1,87.2l-25.8-23.9L494.8,380.3z"/><path d="M333.8,447.1l38.1,25.7l-19.7,29.2l-38.1-25.7L333.8,447.1z"/><path d="M244.7,452.4l23.8,25.9l-66.5,61l-23.8-25.9L244.7,452.4z"/></g>
</svg>